<?xml version="1.0"?><svg width="640" height="480" xmlns="http://www.w3.org/2000/svg">
 <g>
  <rect transform="matrix(16.666669845581055,0,0,16.666669845581055,0,0) " fill="#1f1a4f" stroke-width="1pt" y="-0.06" x="0.06" width="60" id="rect124" height="30"/>
  <path fill="#ffffff" stroke-width="1pt" id="path146" d="m0,0l0,55.901672l888.196838,444.09845l111.803345,0l0,-55.901733l-888.196823,-444.098389l-111.80336,0zm1000.000183,0l0,55.900848l-888.196823,444.099274l-111.80336,0l0,-55.903381l888.196838,-444.096741l111.803345,0z"/>
  <path fill="#ffffff" stroke-width="1pt" id="path136" d="m416.666748,0l0,500.000122l166.666687,0l0,-500.000122l-166.666687,0zm-416.666748,166.666687l0,166.666718l1000.000183,0l0,-166.666718l-1000.000183,0z"/>
  <path fill="#cc0000" stroke-width="1pt" id="path141" d="m0,200.000061l0,100l1000.000183,0l0,-100l-1000.000183,0zm450.000092,-200.000061l0,500.000122l100.000031,0l0,-500.000122l-100.000031,0z"/>
  <path fill="#cc0000" stroke-width="1pt" id="path150" d="m0,500.000122l333.333405,-166.666718l74.535004,0l-333.332733,166.666718l-74.535675,0zm0,-500.000122l333.333405,166.666687l-74.535034,0l-258.79837,-129.398849l0,-37.267838zm592.131775,166.666687l333.333435,-166.666687l74.534973,0l-333.333374,166.666687l-74.535034,0zm407.868408,333.333435l-333.333374,-166.666718l74.534973,0l258.798401,129.398407l0,37.268311z"/>
  <title>Layer 1</title>
 </g>
</svg>