<?xml version="1.0" encoding="UTF-8" standalone="no"?>
<svg width="312px" height="312px" viewBox="0 0 312 312" version="1.1" xmlns="http://www.w3.org/2000/svg" xmlns:xlink="http://www.w3.org/1999/xlink" xmlns:sketch="http://www.bohemiancoding.com/sketch/ns">
    <!-- Generator: Sketch 3.3.3 (12072) - http://www.bohemiancoding.com/sketch -->
    <title>social-ig-gold</title>
    <desc>Created with Sketch.</desc>
    <defs></defs>
    <g id="Page-1" stroke="none" stroke-width="1" fill="none" fill-rule="evenodd" sketch:type="MSPage">
        <g id="social-ig-gold" sketch:type="MSLayerGroup" transform="translate(-0.195747, 0.268084)" fill="#B4975C">
            <path d="M155.7,10.2 C194.6,10.2 231.1,25.3 258.6,52.8 C286.1,80.3 301.2,116.9 301.2,155.7 C301.2,194.5 286.1,231.1 258.6,258.6 C231.1,286.1 194.5,301.2 155.7,301.2 C116.9,301.2 80.3,286.1 52.8,258.6 C25.3,231.1 10.2,194.5 10.2,155.7 C10.2,116.9 25.3,80.3 52.8,52.8 C80.3,25.3 116.9,10.2 155.7,10.2 L155.7,10.2 Z M155.7,0.2 C69.8,0.2 0.2,69.8 0.2,155.7 C0.2,241.6 69.9,311.3 155.8,311.3 C241.7,311.3 311.4,241.6 311.4,155.7 C311.4,69.8 241.7,0.2 155.7,0.2 L155.7,0.2 L155.7,0.2 Z" id="Shape" sketch:type="MSShapeGroup"></path>
            <path d="M79.5,215.9 L79.5,95.5 C80.1,93.9 80.7,92.2 81.4,90.6 C84.3,84.6 89.4,81.3 95.6,79.4 L216,79.4 C217.6,80 219.3,80.6 220.9,81.3 C226.9,84.2 230.2,89.3 232.1,95.5 L232.1,215.9 C231.5,217.5 230.9,219.2 230.2,220.8 C227.3,226.8 222.2,230.1 216,232 L95.6,232 C94,231.4 92.3,230.8 90.7,230.1 C84.6,227.2 81.4,222.1 79.5,215.9 L79.5,215.9 Z M201.4,144.1 C205.4,159.2 203,173 193.4,185 C183.9,197 171.1,202.8 155.8,202.9 C142.7,203 131.4,198.4 122,189.2 C109.2,176.6 106,161.3 110.2,143.9 C106.4,143.9 102.9,144.1 99.5,143.8 C97,143.6 96.3,144.6 96.4,147 C96.5,166.8 96.4,186.5 96.5,206.3 C96.5,212.4 98.4,214.3 104.5,214.3 L206.7,214.3 C212.9,214.3 214.8,212.3 214.8,206 L214.8,147.3 L214.8,144 C210.3,144.1 206.1,144.1 201.4,144.1 L201.4,144.1 Z M155.9,185 C172.9,185 186.3,172.1 186.5,155.5 C186.7,139.2 172.9,125.8 155.8,125.8 C138.9,125.8 125.3,139 125.3,155.4 C125.4,171.9 138.9,185 155.9,185 L155.9,185 Z M199.2,126.5 L206.9,126.5 C211.9,126.4 214.6,123.8 214.7,118.8 C214.8,113.9 214.8,109.1 214.7,104.2 C214.6,99.4 212.2,96.7 207.5,96.5 C202,96.3 196.6,96.3 191.1,96.5 C186.4,96.6 183.8,99.3 183.8,104 C183.7,109 183.7,113.9 183.8,118.9 C183.9,123.7 186.6,126.3 191.5,126.5 C194,126.6 196.6,126.5 199.2,126.5 L199.2,126.5 Z" id="Shape" sketch:type="MSShapeGroup"></path>
        </g>
    </g>
</svg>